<svg xmlns="http://www.w3.org/2000/svg" data-name="Layer 1" width="165.83927" height="536.7767" viewBox="0 0 165.83927 536.7767" xmlns:xlink="http://www.w3.org/1999/xlink">
<path d="M313.30622,380.10373s-26.03815-6-40.35914,5,18.22671,36,18.22671,36Z" transform="translate(-217.08037 -181.61165)" fill="#2f2e41"/>
<path d="M340.23334,523.58686a10.05578,10.05578,0,0,1,7.53982-13.45016l5.26214-35.34529,13.828,12.3944-7.117,31.66428a10.11028,10.11028,0,0,1-19.51294,4.73677Z" transform="translate(-217.08037 -181.61165)" fill="#ffb8b8"/><polygon points="68.648 525.464 80.881 524.652 83.571 477.082 65.517 478.28 68.648 525.464" fill="#ffb8b8"/><path d="M283.32582,702.4627h38.53072a0,0,0,0,1,0,0v14.88687a0,0,0,0,1,0,0H298.21268a14.88686,14.88686,0,0,1-14.88686-14.88686v0A0,0,0,0,1,283.32582,702.4627Z" transform="translate(388.102 1238.20061) rotate(180)" fill="#2f2e41"/><polygon points="89.789 508.53 101.29 512.775 123.139 470.433 106.164 464.168 89.789 508.53" fill="#ffb8b8"/><path d="M301.84846,692.15621h38.53072a0,0,0,0,1,0,0v14.88687a0,0,0,0,1,0,0H316.73532a14.88686,14.88686,0,0,1-14.88686-14.88686v0A0,0,0,0,1,301.84846,692.15621Z" transform="translate(163.01524 1285.50014) rotate(-159.73947)" fill="#2f2e41"/>
<path d="M340.3112,507.39106s12.3886,6.67078,8.57672,33.35393L345.076,641.75975l-21.05939,46.04944-18.10642-4.76485,11.5297-37.47271-15.24751-65.75489-2,119.42808L283.039,702.10373,258.35582,503.57918l31.448-14.29454Z" transform="translate(-217.08037 -181.61165)" fill="#2f2e41"/>
<circle cx="78.95026" cy="162.59444" r="24.56103" fill="#ffb8b8"/><path d="M310.29266,375.40479l-12.3886,20.01236-18.10642-18.10642-33.84971,23.69479a6.40259,6.40259,0,0,0-2.27327,7.64346c5.20684,12.87513,18.54057,50.93294,14.68116,94.9302,0,0,25.73018-6.67079,52.41332.953s33.35393,4.76485,33.35393,4.76485-6.67078-48.60145-2.8589-59.08411c3.1619-8.69524,9.60226-37.71688,11.70665-47.36117a4.34654,4.34654,0,0,0-2.12719-4.72057Z" transform="translate(-217.08037 -181.61165)" fill="#6c63ff"/><path d="M349.86194,398.24706l0,0a4.35486,4.35486,0,0,1,4.81278,3.14888l16.13149,58.25259-3.81188,35.25987-18.10642-2.8589,1.90594-24.77721-13.34157-31.448,8.80712-34.34778A4.35486,4.35486,0,0,1,349.86194,398.24706Z" transform="translate(-217.08037 -181.61165)" fill="#6c63ff"/><path d="M277.03832,309.7283a17.506,17.506,0,0,1,16.14123-8.58806,34.30591,34.30591,0,0,1,9.7548,2.73058l16.05606,6.26317c4.15471,1.62067,8.705,3.60587,10.50786,7.68482,1.67331,3.78583.42489,8.15807-.83887,12.09956L322.65222,348.654a57.03087,57.03087,0,0,0-3.40415-12.37628c-1.74494-3.9173-4.50473-7.52937-8.3203-9.48677-4.17057-2.13951-9.08622-2.09521-13.76814-1.86989-6.63082.31911-13.8404,1.16273-18.55166,5.83967a19.26957,19.26957,0,0,0-4.88945,9.54931,57.47859,57.47859,0,0,0-1.02534,10.8092,89.61293,89.61293,0,0,1-6.84346-14.67147,36.3,36.3,0,0,1-2.54269-11.876,16.70268,16.70268,0,0,1,3.82833-11.29616c2.71259-3.03167,7.13245-4.66839,11.01942-3.46817" transform="translate(-217.08037 -181.61165)" fill="#2f2e41"/>
<path d="M263.3791,537.58686a10.05578,10.05578,0,0,0-7.53982-13.45016l-5.26214-35.34529-13.828,12.3944,7.117,31.66428a10.11028,10.11028,0,0,0,19.51294,4.73677Z" transform="translate(-217.08037 -181.61165)" fill="#ffb8b8"/>
<path d="M246.29533,400.66856h0a6.4131,6.4131,0,0,0-5.35079,6.00558l-5.46,109.19958h20.01235l6.67079-58.13113-8.48945-51.78568A6.41309,6.41309,0,0,0,246.29533,400.66856Z" transform="translate(-217.08037 -181.61165)" fill="#6c63ff"/>
</svg>